{"title":"Evil Dead 2013 HDCAM V2 XviD READNFO-THC","uid":8396432,"size":1038880039,"categoryP":"video","categoryS":"movies","magnet":"?xt=urn:btih:d1c73fab86baa464a12523944d72b307211e8bb4&amp;dn=Evil+Dead+2013+HDCAM+V2+XviD+READNFO-THC&amp;tr=udp%3A%2F%2Ftracker.openbittorrent.com%3A80&amp;tr=udp%3A%2F%2Fopen.demonii.com%3A1337&amp;tr=udp%3A%2F%2Ftracker.coppersurfer.tk%3A6969&amp;tr=udp%3A%2F%2Fexodus.desync.com%3A6969","seeders":8,"leechers":0,"uploader":"xxxlavalxxx","files":-1,"time":1366582877,"description":"\n\n &lt;a href=&quot;\nhttp://www.imdb.com/title/tt1288558/&quot; rel=&quot;nofollow&quot; target=&quot;_NEW&quot;&gt;\nhttp://www.imdb.com/title/tt1288558/&lt;/a&gt;\n\n\nPlot: Five friends head to a remote cabin, where the discovery of a Book of the Dead leads them to unwittingly summon up demons living in the nearby woods. The evil presence possesses them until only one is left to fight for survival. \n\n\n\nDirector:\n Fede Alvarez \n\nWriters:\n Fede Alvarez (screenplay), Sam Raimi, 1 more credit Â» \n\nStars:\n Jane Levy, Shiloh Fernandez, Jessica Lucas\n\nGenres:\n  Horror \n\nCountry:\n USA \n\nLanguage:\n English \n\n\nFormat                           : AVI\n Format/Info                      : Audio Video Interleave\n File size                        : 975 MiB\n Duration                         : 1h 24mn\n Overall bit rate                 : 1 613 Kbps\n Writing library                  : VirtualDub build 35390/release\n\n Video\n ID                               : 0\n Format                           : MPEG-4 Visual\n Format profile                   : Advanced Simple@L5\n Format settings, BVOP            : Yes\n Format settings, QPel            : No\n Format settings, GMC             : No warppoints\n Format settings, Matrix          : Default (H.263)\n Muxing mode                      : Packed bitstream\n Codec ID                         : XVID\n Codec ID/Hint                    : XviD\n Duration                         : 1h 24mn\n Bit rate                         : 1 475 Kbps\n Width                            : 720 pixels\n Height                           : 304 pixels\n Display aspect ratio             : 2.35:1\n Frame rate                       : 24.000 fps\n Color space                      : YUV\n Chroma subsampling               : 4:2:0\n Bit depth                        : 8 bits\n Scan type                        : Progressive\n Bits/(Pixel*Frame)               : 0.281\n Stream size                      : 892 MiB (91%)\n Writing library                  : XviD 1.2.1 (UTC 2008-12-04)\n\n Audio\n ID                               : 1\n Format                           : MPEG Audio\n Format version                   : Version 1\n Format profile                   : Layer 3\n Mode                             : Joint stereo\n Mode extension                   : MS Stereo\n Codec ID                         : 55\n Codec ID/Hint                    : MP3\n Duration                         : 1h 24mn\n Bit rate mode                    : Constant\n Bit rate                         : 128 Kbps\n Channel(s)                       : 2 channels\n Sampling rate                    : 48.0 KHz\n Stream size                      : 77.4 MiB (8%)\n Alignment                        : Split accross interleaves\n Interleave, duration             : 42 ms (1.00 video frame)\n Interleave, preload duration     : 500 ms\n Writing library                  : LAME\n\n\n\n\n    &lt;a href=&quot;\thttp://www.shotpix.com/images/63863661886184291564.png&quot; rel=&quot;nofollow&quot; target=&quot;_NEW&quot;&gt;\thttp://www.shotpix.com/images/63863661886184291564.png&lt;/a&gt;\n    &lt;a href=&quot;\thttp://www.shotpix.com/images/10438824824926443005.png&quot; rel=&quot;nofollow&quot; target=&quot;_NEW&quot;&gt;\thttp://www.shotpix.com/images/10438824824926443005.png&lt;/a&gt;\n    &lt;a href=&quot;\thttp://www.shotpix.com/images/41910738727422681551.png&quot; rel=&quot;nofollow&quot; target=&quot;_NEW&quot;&gt;\thttp://www.shotpix.com/images/41910738727422681551.png&lt;/a&gt;\n    &lt;a href=&quot;\thttp://www.shotpix.com/images/08075634673819416945.png&quot; rel=&quot;nofollow&quot; target=&quot;_NEW&quot;&gt;\thttp://www.shotpix.com/images/08075634673819416945.png&lt;/a&gt;\n    &lt;a href=&quot;\thttp://www.shotpix.com/images/50473209265654699635.png&quot; rel=&quot;nofollow&quot; target=&quot;_NEW&quot;&gt;\thttp://www.shotpix.com/images/50473209265654699635.png&lt;/a&gt;","torrent":{"xt":"urn:btih:d1c73fab86baa464a12523944d72b307211e8bb4","amp;dn":"Evil+Dead+2013+HDCAM+V2+XviD+READNFO-THC","amp;tr":["udp%3A%2F%2Ftracker.openbittorrent.com%3A80","udp%3A%2F%2Fopen.demonii.com%3A1337","udp%3A%2F%2Ftracker.coppersurfer.tk%3A6969","udp%3A%2F%2Fexodus.desync.com%3A6969"],"infoHash":"d1c73fab86baa464a12523944d72b307211e8bb4","infoHashBuffer":{"type":"Buffer","data":[209,199,63,171,134,186,164,100,161,37,35,148,77,114,179,7,33,30,139,180]},"announce":[],"urlList":[]}}